<!-- Generated by IcoMoon.io -->
<svg version="1.1" xmlns="http://www.w3.org/2000/svg" xmlns:xlink="http://www.w3.org/1999/xlink" width="224" height="16" viewBox="0 0 224 16">

	<g transform="translate(0, 0)">
		<path fill="#fff" d="M13.6 7.2l-10-7c-0.7-0.5-1.6 0-1.6 0.8v14c0 0.8 0.9 1.3 1.6 0.8l10-7c0.5-0.4 0.5-1.2 0-1.6z"></path>
	</g>

	<g transform="translate(32, 0)">
		<path fill="#fff" d="M5 1h-3c-0.6 0-1 0.4-1 1v12c0 0.6 0.4 1 1 1h3c0.6 0 1-0.4 1-1v-12c0-0.6-0.4-1-1-1z"></path>
		<path fill="#fff" d="M14 1h-3c-0.6 0-1 0.4-1 1v12c0 0.6 0.4 1 1 1h3c0.6 0 1-0.4 1-1v-12c0-0.6-0.4-1-1-1z"></path>
	</g>

	<g transform="translate(64, 0)">
		<path fill="#fff" d="M14 1h-12c-0.6 0-1 0.4-1 1v12c0 0.6 0.4 1 1 1h12c0.6 0 1-0.4 1-1v-12c0-0.6-0.4-1-1-1z"></path>
	</g>

	<g transform="translate(96, 0)">
		<path fill="#fff" d="M2 6h-2v-5c0-0.6 0.4-1 1-1h5v2h-4v4z"></path>
		<path fill="#fff" d="M16 6h-2v-4h-4v-2h5c0.6 0 1 0.4 1 1v5z"></path>
		<path fill="#fff" d="M15 16h-5v-2h4v-4h2v5c0 0.6-0.4 1-1 1z"></path>
		<path fill="#fff" d="M6 16h-5c-0.6 0-1-0.4-1-1v-5h2v4h4v2z"></path>
	</g>

	<g transform="translate(128, 0)">
		<path fill="#fff" d="M12 16h-2v-5c0-0.601 0.4-1 1-1h5v2h-4v4z"></path>
		<path fill="#fff" d="M6 16h-2v-4h-4v-2h5c0.6 0 1 0.399 1 1v5z"></path>
		<path fill="#fff" d="M5 6h-5v-2h4v-4h2v5c0 0.6-0.4 1-1 1z"></path>
		<path fill="#fff" d="M16 6h-5c-0.6 0-1-0.4-1-1v-5h2v4h4v2z"></path>
	</g>

	<g transform="translate(160, 0)">
		<path fill="#fff" d="M12.8 12.2c-0.4-0.4-0.4-1 0-1.4 1.6-1.6 1.6-4.1 0-5.7-0.4-0.4-0.4-1 0-1.4s1-0.4 1.4 0c2.3 2.3 2.3 6.1 0 8.5-0.3 0.4-1 0.4-1.4 0z"></path>
		<path fill="#fff" d="M11 1c0-0.8-0.9-1.3-1.6-0.8l-5.7 3.8h-2.7c-0.6 0-1 0.4-1 1v6c0 0.6 0.4 1 1 1h2.7l5.7 3.8c0.7 0.4 1.6 0 1.6-0.8v-14z"></path>
	</g>

	<g transform="translate(192, 0)">
		<path fill="#fff" d="M11 1c0-0.8-0.9-1.3-1.6-0.8l-5.7 3.8h-2.7c-0.6 0-1 0.4-1 1v6c0 0.6 0.4 1 1 1h2.7l5.7 3.8c0.7 0.4 1.6 0 1.6-0.8v-14z"></path>
	</g>

</svg>
